<svg width="48" height="48" viewBox="0 0 48 48" fill="none" xmlns="http://www.w3.org/2000/svg">
<circle cx="24" cy="24" r="24" fill="url(#paint0_linear_2034_78)"/>
<path d="M24 34C18.477 34 14 29.523 14 24C14 18.477 18.477 14 24 14C29.523 14 34 18.477 34 24C34 29.523 29.523 34 24 34ZM20.5 26V28H23V30H25V28H26C26.663 28 27.2989 27.7366 27.7678 27.2678C28.2366 26.7989 28.5 26.163 28.5 25.5C28.5 24.837 28.2366 24.2011 27.7678 23.7322C27.2989 23.2634 26.663 23 26 23H22C21.8674 23 21.7402 22.9473 21.6464 22.8536C21.5527 22.7598 21.5 22.6326 21.5 22.5C21.5 22.3674 21.5527 22.2402 21.6464 22.1464C21.7402 22.0527 21.8674 22 22 22H27.5V20H25V18H23V20H22C21.337 20 20.7011 20.2634 20.2322 20.7322C19.7634 21.2011 19.5 21.837 19.5 22.5C19.5 23.163 19.7634 23.7989 20.2322 24.2678C20.7011 24.7366 21.337 25 22 25H26C26.1326 25 26.2598 25.0527 26.3536 25.1464C26.4473 25.2402 26.5 25.3674 26.5 25.5C26.5 25.6326 26.4473 25.7598 26.3536 25.8536C26.2598 25.9473 26.1326 26 26 26H20.5Z" fill="white"/>
<defs>
<linearGradient id="paint0_linear_2034_78" x1="12.7781" y1="9.24074" x2="39.2241" y2="48" gradientUnits="userSpaceOnUse">
<stop stop-color="#BEADFF"/>
<stop offset="1" stop-color="#836AE4"/>
</linearGradient>
</defs>
</svg>
