<svg width="48" height="48" viewBox="0 0 48 48" fill="none" xmlns="http://www.w3.org/2000/svg">
<circle cx="24" cy="24" r="24" fill="url(#paint0_linear_2032_26)"/>
<path d="M21 25V28H27V25H34V32C34 32.2652 33.8946 32.5196 33.7071 32.7071C33.5196 32.8946 33.2652 33 33 33H15C14.7348 33 14.4804 32.8946 14.2929 32.7071C14.1054 32.5196 14 32.2652 14 32V25H21ZM23 23H25V26H23V23ZM19 17V14C19 13.7348 19.1054 13.4804 19.2929 13.2929C19.4804 13.1054 19.7348 13 20 13H28C28.2652 13 28.5196 13.1054 28.7071 13.2929C28.8946 13.4804 29 13.7348 29 14V17H33C33.2652 17 33.5196 17.1054 33.7071 17.2929C33.8946 17.4804 34 17.7348 34 18V23H27V21H21V23H14V18C14 17.7348 14.1054 17.4804 14.2929 17.2929C14.4804 17.1054 14.7348 17 15 17H19ZM21 15V17H27V15H21Z" fill="white"/>
<defs>
<linearGradient id="paint0_linear_2032_26" x1="12.7781" y1="9.24074" x2="39.2241" y2="48" gradientUnits="userSpaceOnUse">
<stop stop-color="#BEADFF"/>
<stop offset="1" stop-color="#836AE4"/>
</linearGradient>
</defs>
</svg>
